<?xml version="1.0" encoding="UTF-8"?>
<svg width="82px" height="79px" viewBox="0 0 82 79" version="1.1" xmlns="http://www.w3.org/2000/svg" xmlns:xlink="http://www.w3.org/1999/xlink">
    <!-- Generator: Sketch 64 (93537) - https://sketch.com -->
    <title>Path</title>
    <desc>Created with Sketch.</desc>
    <g id="Page-1" stroke="none" stroke-width="1" fill="none" fill-rule="evenodd">
        <g id="DD-Hand-Drawn-Arrow-Collection-87902" transform="translate(40.682034, 39.646385) rotate(-100.000000) translate(-40.682034, -39.646385) translate(-5.317966, 4.646385)" fill="#EA4C89" fill-rule="nonzero">
            <path d="M63.6909256,0.253714551 C66.7969862,0.253714551 72.0242589,0.442885803 79.4106226,0.783394058 L86.9106226,1.23740506 C87.9333498,1.31307357 88.7288044,1.35090782 89.334865,1.42657632 C89.6000165,1.42657632 89.8272892,1.46441057 90.054562,1.50224482 L90.3575923,1.50224482 C90.4333498,1.50224482 90.5091074,1.54007907 90.6606226,1.57791332 C90.7363802,1.57791332 90.8121377,1.61574757 90.8500165,1.65358182 C91.115168,1.84275307 91.3424408,2.03192433 91.4939559,2.29676408 C91.6454711,2.52376958 91.7591074,2.82644359 91.7591074,3.12911759 C91.7591074,3.24262034 91.7591074,3.35612309 91.7212286,3.4317916 C91.6833498,3.5074601 91.6833498,3.62096285 91.6833498,3.7344656 C91.6075923,3.92363685 91.5318347,4.1128081 91.3803195,4.37764786 L90.4712286,6.30719464 L87.4409256,12.1336692 C83.8424408,19.0195028 81.8727438,22.8785964 81.4560771,23.8244526 C81.2666832,24.2406294 80.9257741,24.5433034 80.5091074,24.6946404 C80.054562,24.8459774 79.6378953,24.8459774 79.1833498,24.6946404 C78.7288044,24.5433034 78.4257741,24.2784636 78.2742589,23.8622869 C78.1227438,23.4839444 78.084865,23.1056019 78.2363802,22.7272594 C78.9939559,21.1382208 81.0015317,17.1656245 84.334865,10.7716362 L86.1530468,7.29088515 C78.1227438,10.2797909 70.1303195,13.8740447 62.2894105,18.0358123 C54.4106226,22.2354141 46.7969862,26.8890269 39.4106226,32.034485 C32.0242589,37.1799431 25.2818347,42.8929149 19.0697135,49.1734005 C12.8954711,55.4538861 7.85759227,61.8857087 3.99395591,68.4688683 C3.80456197,68.8472108 3.46365288,69.0742163 2.97122864,69.187719 C2.51668318,69.3012218 2.06213773,69.2633875 1.64547106,69.1120505 C1.22880439,68.9228793 0.96365288,68.6202053 0.850016516,68.2040285 C0.698501365,67.7878517 0.736380152,67.371675 0.96365288,67.0311667 C4.94092561,60.2210016 10.1303195,53.5621735 16.5318347,47.0925167 C22.9333498,40.6228599 29.9030468,34.7207168 37.5166832,29.4239217 C45.1303195,24.1271266 52.9712286,19.3600111 61.0394105,15.122575 C69.1075923,10.8851389 77.2515317,7.21521665 85.4333498,4.18847661 C83.615168,4.07497385 81.5318347,3.9614711 79.2591074,3.8101341 C71.9485014,3.4317916 66.7969862,3.28045459 63.7288044,3.28045459 C63.2363802,3.28045459 62.8575923,3.12911759 62.5166832,2.82644359 C62.1757741,2.52376958 62.0242589,2.14542708 62.0242589,1.72925032 C62.0242589,1.31307357 62.1757741,0.93473106 62.5166832,0.632057056 C62.7818347,0.405051553 63.1985014,0.253714551 63.6909256,0.253714551 Z" id="Path"></path>
        </g>
    </g>
</svg>